<svg xmlns="http://www.w3.org/2000/svg">
	<symbol id="address_header" fill="none">
<path d="M8 1C4.13404 1 1 4.07606 1 7.8705C1 13.8889 8 21 8 21C8 21 15 13.8889 15 7.8705C15 4.07606 11.866 1 8 1Z" stroke="#333333" stroke-width="2" stroke-miterlimit="10" stroke-linecap="round" stroke-linejoin="round"/>
<path d="M8 10C9.10457 10 10 9.10457 10 8C10 6.89543 9.10457 6 8 6C6.89543 6 6 6.89543 6 8C6 9.10457 6.89543 10 8 10Z" stroke="#333333" stroke-miterlimit="10" stroke-linecap="round" stroke-linejoin="round"/>
	</symbol>
		<symbol id="address_footer" fill="none">
<path d="M8 1C4.13404 1 1 4.03761 1 7.78462C1 13.7278 8 20.75 8 20.75C8 20.75 15 13.7278 15 7.78462C15 4.03761 11.866 1 8 1Z" stroke="#FFDD00" stroke-width="2" stroke-miterlimit="10" stroke-linecap="round" stroke-linejoin="round"/>
<path d="M8 9.8875C9.10457 9.8875 10 9.00326 10 7.9125C10 6.82174 9.10457 5.9375 8 5.9375C6.89543 5.9375 6 6.82174 6 7.9125C6 9.00326 6.89543 9.8875 8 9.8875Z" stroke="#FFDD00" stroke-miterlimit="10" stroke-linecap="round" stroke-linejoin="round"/>
	</symbol>
	<symbol id="result-type2" fill="none">
<path d="M9.00025 1H7.99975L4.81482 7.67364L6.81796 8.87593V11.5609L1 12.5101V13.6751C1 14.9591 7.17333 16 8.50076 16C9.82673 16 16 14.9591 16 13.6751V12.5101L10.1828 11.5609V8.87593L12.1859 7.67364L9.00025 1Z" fill="#333333" stroke="#333333" stroke-miterlimit="10" stroke-linecap="round" stroke-linejoin="round"/>
<path d="M6.99939 8.74207H9.9921" stroke="#333333" stroke-miterlimit="10" stroke-linecap="round" stroke-linejoin="round"/>
<path d="M6.99939 11.561H10.6242" stroke="#333333" stroke-miterlimit="10" stroke-linecap="round" stroke-linejoin="round"/>
	</symbol>
	<symbol id="phone_footer" fill="none" >
<path d="M1.10503 4.73914C0.752214 6.78078 1.26879 9.71015 2.95117 13.2933C4.63355 16.8764 6.5641 19.1589 8.36979 20.2118C10.1759 21.2647 11.7198 20.5364 12.8467 20.0205L13.6632 19.6468C14.2883 19.3606 14.5602 18.6281 14.2704 18.0104L13.124 15.5696C12.8556 14.9973 12.1675 14.7484 11.5883 15.0138L10.6889 15.4252C10.4521 15.5339 10.2568 15.6948 10.1094 15.8869H10.109C10.109 15.8869 9.20923 17.0393 8.07961 16.5745C6.86129 16.0732 5.71261 14.0642 4.92607 12.389C4.13953 10.7139 3.32927 8.55006 3.72876 7.30818C4.09947 6.15618 5.5714 6.22267 5.5714 6.22267V6.22229C5.8153 6.23574 6.06581 6.1923 6.3027 6.08359L7.20166 5.67222C7.78164 5.40679 8.03371 4.72762 7.76491 4.15489L6.61856 1.71414C6.32876 1.09685 5.58696 0.828381 4.96186 1.11456L4.14498 1.4887C3.01808 2.00419 1.45823 2.69789 1.10503 4.73914Z" stroke="#FFDD00" stroke-width="2" stroke-miterlimit="10" stroke-linecap="round" stroke-linejoin="round"/>
<path d="M10.689 15.4361L12.8463 20.0314" stroke="#FFDD00" stroke-miterlimit="10" stroke-linecap="round" stroke-linejoin="round"/>
<path d="M4.14539 1.48822L6.30311 6.08354" stroke="#FFDD00" stroke-miterlimit="10" stroke-linecap="round" stroke-linejoin="round"/>
</symbol>
	<symbol id="result-type1" fill="none">
<path d="M8.4668 3.9228L6.7395 1.79688" stroke="#333333" stroke-miterlimit="10" stroke-linecap="round" stroke-linejoin="round"/>
<path d="M8.46692 3.9228L10.1942 1.79688" stroke="#333333" stroke-miterlimit="10" stroke-linecap="round" stroke-linejoin="round"/>
<path d="M5.24037 5.28704L2.51587 5.00537" stroke="#333333" stroke-miterlimit="10" stroke-linecap="round" stroke-linejoin="round"/>
<path d="M5.24042 5.28711L4.95874 2.56262" stroke="#333333" stroke-miterlimit="10" stroke-linecap="round" stroke-linejoin="round"/>
<path d="M3.9234 8.53308L1.79749 10.2604" stroke="#333333" stroke-miterlimit="10" stroke-linecap="round" stroke-linejoin="round"/>
<path d="M3.9234 8.5331L1.79749 6.80579" stroke="#333333" stroke-miterlimit="10" stroke-linecap="round" stroke-linejoin="round"/>
<path d="M5.28763 11.7599L5.00562 14.4844" stroke="#333333" stroke-miterlimit="10" stroke-linecap="round" stroke-linejoin="round"/>
<path d="M5.28758 11.7599L2.56274 12.0419" stroke="#333333" stroke-miterlimit="10" stroke-linecap="round" stroke-linejoin="round"/>
<path d="M8.53381 13.0769L10.2611 15.2028" stroke="#333333" stroke-miterlimit="10" stroke-linecap="round" stroke-linejoin="round"/>
<path d="M8.53371 13.0769L6.8064 15.2028" stroke="#333333" stroke-miterlimit="10" stroke-linecap="round" stroke-linejoin="round"/>
<path d="M11.7601 11.7126L14.4846 11.995" stroke="#333333" stroke-miterlimit="10" stroke-linecap="round" stroke-linejoin="round"/>
<path d="M11.7601 11.7126L12.0418 14.4378" stroke="#333333" stroke-miterlimit="10" stroke-linecap="round" stroke-linejoin="round"/>
<path d="M13.0774 8.46669L15.2033 6.73938" stroke="#333333" stroke-miterlimit="10" stroke-linecap="round" stroke-linejoin="round"/>
<path d="M13.0774 8.46667L15.2033 10.194" stroke="#333333" stroke-miterlimit="10" stroke-linecap="round" stroke-linejoin="round"/>
<path d="M8.50026 10.2271C9.45423 10.2271 10.2276 9.45374 10.2276 8.49977C10.2276 7.54581 9.45423 6.77246 8.50026 6.77246C7.5463 6.77246 6.77295 7.54581 6.77295 8.49977C6.77295 9.45374 7.5463 10.2271 8.50026 10.2271Z" fill="#333333" stroke="#333333" stroke-miterlimit="10" stroke-linecap="round" stroke-linejoin="round"/>
<path d="M8.46692 6.75759V1" stroke="#333333" stroke-miterlimit="10" stroke-linecap="round" stroke-linejoin="round"/>
<path d="M7.24448 7.29147L3.17334 3.22034" stroke="#333333" stroke-miterlimit="10" stroke-linecap="round" stroke-linejoin="round"/>
<path d="M6.75759 8.53308H1" stroke="#333333" stroke-miterlimit="10" stroke-linecap="round" stroke-linejoin="round"/>
<path d="M7.29168 9.75549L3.22021 13.8269" stroke="#333333" stroke-miterlimit="10" stroke-linecap="round" stroke-linejoin="round"/>
<path d="M8.53381 10.2424V16" stroke="#333333" stroke-miterlimit="10" stroke-linecap="round" stroke-linejoin="round"/>
<path d="M9.7561 9.70862L13.8272 13.7797" stroke="#333333" stroke-miterlimit="10" stroke-linecap="round" stroke-linejoin="round"/>
<path d="M10.243 8.46667H16.0006" stroke="#333333" stroke-miterlimit="10" stroke-linecap="round" stroke-linejoin="round"/>
<path d="M9.70862 7.24424L13.7801 3.1731" stroke="#333333" stroke-miterlimit="10" stroke-linecap="round" stroke-linejoin="round"/>
<path d="M11.7133 5.24021L11.9953 2.51538" stroke="#333333" stroke-miterlimit="10" stroke-linecap="round" stroke-linejoin="round"/>
<path d="M11.7133 5.24027L14.4381 4.95825" stroke="#333333" stroke-miterlimit="10" stroke-linecap="round" stroke-linejoin="round"/>
	</symbol>
	<symbol id="warning" fill="none">
		<path d="M12 22C17.5229 22 22.0001 17.5229 22.0001 12C22.0001 6.47714 17.5229 2 12 2C6.47717 2 2 6.47714 2 12C2 17.5229 6.47717 22 12 22Z" stroke="#FCE500" stroke-width="2.4" stroke-miterlimit="10" stroke-linecap="round" stroke-linejoin="round" />
		<path d="M12.0005 7.18067V6.50354" stroke="#FCE500" stroke-width="1.76" stroke-miterlimit="10" stroke-linecap="round" stroke-linejoin="round" />
		<path d="M12.0005 17.4962V9.9407" stroke="#FCE500" stroke-width="1.76" stroke-miterlimit="10" stroke-linecap="round" stroke-linejoin="round" />
	</symbol>
	<symbol id="filter_all" fill="none">
<path d="M7.81554 5.04656C7.00622 5.04656 6.35034 4.14101 6.35034 3.02364C6.35034 1.90551 7.00622 1 7.81554 1H24.5353C25.344 1 25.9999 1.90551 25.9999 3.02364C25.9999 4.14101 25.344 5.04656 24.5353 5.04656H7.81554Z" stroke="#333333" stroke-width="2" stroke-miterlimit="10" stroke-linecap="round" stroke-linejoin="round"/>
<path d="M7.81554 13.0231C7.00622 13.0231 6.35034 12.1176 6.35034 11.0002C6.35034 9.88287 7.00622 8.97656 7.81554 8.97656H24.5353C25.344 8.97656 25.9999 9.88287 25.9999 11.0002C25.9999 12.1176 25.344 13.0231 24.5353 13.0231H7.81554Z" stroke="#333333" stroke-width="2" stroke-miterlimit="10" stroke-linecap="round" stroke-linejoin="round"/>
<path d="M7.81554 20.9998C7.00622 20.9998 6.35034 20.0943 6.35034 18.9769C6.35034 17.8596 7.00622 16.9532 7.81554 16.9532H24.5353C25.344 16.9532 25.9999 17.8596 25.9999 18.9769C25.9999 20.0943 25.344 20.9998 24.5353 20.9998H7.81554Z" stroke="#333333" stroke-width="2" stroke-miterlimit="10" stroke-linecap="round" stroke-linejoin="round"/>
<path d="M2.46521 5.04656C1.65589 5.04656 1 4.14101 1 3.02364C1 1.90551 1.65589 1 2.46521 1H2.50286C3.31218 1 3.96807 1.90551 3.96807 3.02364C3.96807 4.14101 3.31218 5.04656 2.50286 5.04656H2.46521Z" stroke="#333333" stroke-width="2" stroke-miterlimit="10" stroke-linecap="round" stroke-linejoin="round"/>
<path d="M2.46521 13.0231C1.65589 13.0231 1 12.1176 1 11.0002C1 9.88287 1.65589 8.97656 2.46521 8.97656H2.50286C3.31218 8.97656 3.96807 9.88287 3.96807 11.0002C3.96807 12.1176 3.31218 13.0231 2.50286 13.0231H2.46521Z" stroke="#333333" stroke-width="2" stroke-miterlimit="10" stroke-linecap="round" stroke-linejoin="round"/>
<path d="M2.46521 20.9998C1.65589 20.9998 1 20.0943 1 18.9769C1 17.8596 1.65589 16.9532 2.46521 16.9532H2.50286C3.31218 16.9532 3.96807 17.8596 3.96807 18.9769C3.96807 20.0943 3.31218 20.9998 2.50286 20.9998H2.46521Z" stroke="#333333" stroke-width="2" stroke-miterlimit="10" stroke-linecap="round" stroke-linejoin="round"/>
	</symbol>
	<symbol id="filter_summer" fill="none">
<path d="M13.5001 20.0297C17.1064 20.0297 20.0299 17.1062 20.0299 13.4998C20.0299 9.89348 17.1064 6.96997 13.5001 6.96997C9.89372 6.96997 6.97021 9.89348 6.97021 13.4998C6.97021 17.1062 9.89372 20.0297 13.5001 20.0297Z" stroke="#333333" stroke-width="2" stroke-miterlimit="10" stroke-linecap="round" stroke-linejoin="round"/>
<path d="M13.451 3.25611V1" stroke="#333333" stroke-width="2" stroke-miterlimit="10" stroke-linecap="round" stroke-linejoin="round"/>
<path d="M6.2223 6.29148L4.62683 4.69604" stroke="#333333" stroke-width="2" stroke-miterlimit="10" stroke-linecap="round" stroke-linejoin="round"/>
<path d="M3.2567 13.5494H1" stroke="#333333" stroke-width="2" stroke-miterlimit="10" stroke-linecap="round" stroke-linejoin="round"/>
<path d="M6.29153 20.778L4.69666 22.3734" stroke="#333333" stroke-width="2" stroke-miterlimit="10" stroke-linecap="round" stroke-linejoin="round"/>
<path d="M13.549 23.7438V26.0004" stroke="#333333" stroke-width="2" stroke-miterlimit="10" stroke-linecap="round" stroke-linejoin="round"/>
<path d="M20.778 20.7083L22.3734 22.3043" stroke="#333333" stroke-width="2" stroke-miterlimit="10" stroke-linecap="round" stroke-linejoin="round"/>
<path d="M23.7433 13.451H26" stroke="#333333" stroke-width="2" stroke-miterlimit="10" stroke-linecap="round" stroke-linejoin="round"/>
<path d="M20.7092 6.22177L22.3041 4.62573" stroke="#333333" stroke-width="2" stroke-miterlimit="10" stroke-linecap="round" stroke-linejoin="round"/>
	</symbol>
	<symbol id="filter_insole" fill="none">
<path d="M13.7817 19.6012C17.3069 19.6012 20.1645 16.7435 20.1645 13.2184C20.1645 9.69324 17.3069 6.83557 13.7817 6.83557" stroke="black" stroke-width="2" stroke-miterlimit="10" stroke-linecap="round" stroke-linejoin="round"/>
<path d="M13.7336 3.2053V1" stroke="black" stroke-width="2" stroke-miterlimit="10" stroke-linecap="round" stroke-linejoin="round"/>
<path d="M20.8958 20.2644L22.4553 21.8245" stroke="black" stroke-width="2" stroke-miterlimit="10" stroke-linecap="round" stroke-linejoin="round"/>
<path d="M23.7944 13.1707H26.0003" stroke="black" stroke-width="2" stroke-miterlimit="10" stroke-linecap="round" stroke-linejoin="round"/>
<path d="M20.8286 6.10416L22.3876 4.54407" stroke="black" stroke-width="2" stroke-miterlimit="10" stroke-linecap="round" stroke-linejoin="round"/>
<path d="M13.7121 16.2429C12.0952 16.2429 10.7844 14.9321 10.7844 13.3152C10.7844 11.6983 12.0952 10.3876 13.7121 10.3876" stroke="black" stroke-width="2" stroke-miterlimit="10" stroke-linecap="round" stroke-linejoin="round"/>
<path d="M11.5841 11.267L4.68384 4.36682" stroke="black" stroke-width="2" stroke-miterlimit="10" stroke-linecap="round" stroke-linejoin="round"/>
<path d="M8.18712 7.86986L3.56934 7.39246" stroke="black" stroke-width="2" stroke-miterlimit="10" stroke-linecap="round" stroke-linejoin="round"/>
<path d="M8.18739 7.86985L7.70996 3.25208" stroke="black" stroke-width="2" stroke-miterlimit="10" stroke-linecap="round" stroke-linejoin="round"/>
<path d="M10.7586 13.3715H1" stroke="black" stroke-width="2" stroke-miterlimit="10" stroke-linecap="round" stroke-linejoin="round"/>
<path d="M5.95456 13.3715L2.35132 16.2991" stroke="black" stroke-width="2" stroke-miterlimit="10" stroke-linecap="round" stroke-linejoin="round"/>
<path d="M5.95456 13.3715L2.35132 10.4438" stroke="black" stroke-width="2" stroke-miterlimit="10" stroke-linecap="round" stroke-linejoin="round"/>
<path d="M11.6642 15.4434L4.76343 22.3441" stroke="black" stroke-width="2" stroke-miterlimit="10" stroke-linecap="round" stroke-linejoin="round"/>
<path d="M8.26706 18.8406L7.78906 23.4584" stroke="black" stroke-width="2" stroke-miterlimit="10" stroke-linecap="round" stroke-linejoin="round"/>
<path d="M8.26728 18.8406L3.64893 19.3186" stroke="black" stroke-width="2" stroke-miterlimit="10" stroke-linecap="round" stroke-linejoin="round"/>
<path d="M13.7688 16.2687V26.0273" stroke="black" stroke-width="2" stroke-miterlimit="10" stroke-linecap="round" stroke-linejoin="round"/>
<path d="M13.7688 21.0729L16.6964 24.6761" stroke="black" stroke-width="2" stroke-miterlimit="10" stroke-linecap="round" stroke-linejoin="round"/>
<path d="M13.7687 21.0729L10.8411 24.6761" stroke="black" stroke-width="2" stroke-miterlimit="10" stroke-linecap="round" stroke-linejoin="round"/>
	</symbol>
	<symbol id="filter_studded" fill="none">
<path d="M14.3338 1H12.6662L7.35803 12.1227L10.6966 14.1265V18.6016L1 20.1836V22.1251C1 24.2651 11.2889 26 13.5013 26C15.7112 26 26 24.2651 26 22.1251V20.1836L16.3047 18.6016V14.1265L19.6432 12.1227L14.3338 1Z" stroke="black" stroke-width="2" stroke-miterlimit="10" stroke-linecap="round" stroke-linejoin="round"/>
<path d="M10.999 13.9036H15.9869" stroke="black" stroke-width="2" stroke-miterlimit="10" stroke-linecap="round" stroke-linejoin="round"/>
<path d="M10.999 18.6017H17.0403" stroke="black" stroke-width="2" stroke-miterlimit="10" stroke-linecap="round" stroke-linejoin="round"/>
	</symbol>
	<symbol id="filter_winter" fill="none">
<path d="M13.4441 5.87104L10.5654 2.328" stroke="#333333" stroke-width="2" stroke-miterlimit="10" stroke-linecap="round" stroke-linejoin="round"/>
<path d="M13.4443 5.87104L16.323 2.328" stroke="#333333" stroke-width="2" stroke-miterlimit="10" stroke-linecap="round" stroke-linejoin="round"/>
<path d="M8.06697 8.14472L3.52637 7.67529" stroke="#333333" stroke-width="2" stroke-miterlimit="10" stroke-linecap="round" stroke-linejoin="round"/>
<path d="M8.0671 8.14483L7.59766 3.60425" stroke="#333333" stroke-width="2" stroke-miterlimit="10" stroke-linecap="round" stroke-linejoin="round"/>
<path d="M5.87212 13.5544L2.3291 16.4331" stroke="#333333" stroke-width="2" stroke-miterlimit="10" stroke-linecap="round" stroke-linejoin="round"/>
<path d="M5.87212 13.5545L2.3291 10.6758" stroke="#333333" stroke-width="2" stroke-miterlimit="10" stroke-linecap="round" stroke-linejoin="round"/>
<path d="M8.14578 18.9321L7.67578 23.4727" stroke="#333333" stroke-width="2" stroke-miterlimit="10" stroke-linecap="round" stroke-linejoin="round"/>
<path d="M8.14565 18.9321L3.60449 19.4021" stroke="#333333" stroke-width="2" stroke-miterlimit="10" stroke-linecap="round" stroke-linejoin="round"/>
<path d="M13.5557 21.1271L16.4344 24.67" stroke="#333333" stroke-width="2" stroke-miterlimit="10" stroke-linecap="round" stroke-linejoin="round"/>
<path d="M13.5555 21.1271L10.6768 24.67" stroke="#333333" stroke-width="2" stroke-miterlimit="10" stroke-linecap="round" stroke-linejoin="round"/>
<path d="M18.9326 18.8535L23.4732 19.3241" stroke="#333333" stroke-width="2" stroke-miterlimit="10" stroke-linecap="round" stroke-linejoin="round"/>
<path d="M18.9326 18.8535L19.4021 23.3952" stroke="#333333" stroke-width="2" stroke-miterlimit="10" stroke-linecap="round" stroke-linejoin="round"/>
<path d="M21.1279 13.4438L24.6709 10.5651" stroke="#333333" stroke-width="2" stroke-miterlimit="10" stroke-linecap="round" stroke-linejoin="round"/>
<path d="M21.1279 13.4438L24.6709 16.3226" stroke="#333333" stroke-width="2" stroke-miterlimit="10" stroke-linecap="round" stroke-linejoin="round"/>
<path d="M13.4998 16.3778C15.0897 16.3778 16.3785 15.0889 16.3785 13.4991C16.3785 11.9092 15.0897 10.6204 13.4998 10.6204C11.9099 10.6204 10.6211 11.9092 10.6211 13.4991C10.6211 15.0889 11.9099 16.3778 13.4998 16.3778Z" fill="#333333" stroke="#333333" stroke-width="2" stroke-miterlimit="10" stroke-linecap="round" stroke-linejoin="round"/>
<path d="M13.4443 10.5955V1" stroke="#333333" stroke-width="2" stroke-miterlimit="10" stroke-linecap="round" stroke-linejoin="round"/>
<path d="M11.407 11.4852L4.62207 4.70032" stroke="#333333" stroke-width="2" stroke-miterlimit="10" stroke-linecap="round" stroke-linejoin="round"/>
<path d="M10.5955 13.5544H1" stroke="#333333" stroke-width="2" stroke-miterlimit="10" stroke-linecap="round" stroke-linejoin="round"/>
<path d="M11.4856 15.5917L4.7002 22.3771" stroke="#333333" stroke-width="2" stroke-miterlimit="10" stroke-linecap="round" stroke-linejoin="round"/>
<path d="M13.5557 16.4033V25.9988" stroke="#333333" stroke-width="2" stroke-miterlimit="10" stroke-linecap="round" stroke-linejoin="round"/>
<path d="M15.5928 15.5137L22.3777 22.2986" stroke="#333333" stroke-width="2" stroke-miterlimit="10" stroke-linecap="round" stroke-linejoin="round"/>
<path d="M16.4043 13.4438H25.9998" stroke="#333333" stroke-width="2" stroke-miterlimit="10" stroke-linecap="round" stroke-linejoin="round"/>
<path d="M15.5137 11.4065L22.2991 4.62158" stroke="#333333" stroke-width="2" stroke-miterlimit="10" stroke-linecap="round" stroke-linejoin="round"/>
<path d="M18.8545 8.06667L19.3245 3.52551" stroke="#333333" stroke-width="2" stroke-miterlimit="10" stroke-linecap="round" stroke-linejoin="round"/>
<path d="M18.8545 8.06668L23.3957 7.59668" stroke="#333333" stroke-width="2" stroke-miterlimit="10" stroke-linecap="round" stroke-linejoin="round"/>
	</symbol>
	<symbol id="phone_header" fill="none">
		<path d="M1.10503 4.78648C0.752214 6.85395 1.26879 9.8204 2.95117 13.4489C4.63355 17.0774 6.56409 19.3888 8.36978 20.455C10.1759 21.5212 11.7198 20.7837 12.8467 20.2613L13.6631 19.8828C14.2882 19.593 14.5601 18.8512 14.2704 18.2257L13.124 15.7541C12.8556 15.1745 12.1675 14.9224 11.5883 15.1912L10.6889 15.6078C10.452 15.7179 10.2568 15.8808 10.1093 16.0753H10.109C10.109 16.0753 9.20922 17.2423 8.0796 16.7716C6.86128 16.264 5.7126 14.2296 4.92606 12.5332C4.13953 10.8368 3.32927 8.64563 3.72876 7.38803C4.09946 6.22145 5.5714 6.28878 5.5714 6.28878V6.2884C5.81529 6.30201 6.0658 6.25802 6.30269 6.14794L7.20165 5.73136C7.78163 5.46257 8.0337 4.77481 7.76491 4.19482L6.61855 1.72318C6.32876 1.09808 5.58696 0.826209 4.96185 1.11601L4.14498 1.49488C3.01807 2.0169 1.45823 2.71939 1.10503 4.78648Z" stroke="#333333" stroke-width="2" stroke-miterlimit="10" stroke-linecap="round" stroke-linejoin="round" />
		<path d="M10.689 15.6189L12.8463 20.2724" stroke="#333333" stroke-miterlimit="10" stroke-linecap="round" stroke-linejoin="round" />
		<path d="M4.14539 1.49438L6.3031 6.14787" stroke="#333333" stroke-miterlimit="10" stroke-linecap="round" stroke-linejoin="round" />
	</symbol>
	<symbol id="personal-orders" fill="none">
<path d="M13 19.8708L17.7418 15.1277" stroke="#333333" stroke-width="1.76" stroke-miterlimit="10" stroke-linecap="round" stroke-linejoin="round"/>
<path d="M13 10L17.7418 14.7424" stroke="#333333" stroke-width="1.76" stroke-miterlimit="10" stroke-linecap="round" stroke-linejoin="round"/>
<path d="M14.5 27C21.4036 27 27.0001 21.4036 27.0001 14.5C27.0001 7.59642 21.4036 2 14.5 2C7.59646 2 2 7.59642 2 14.5C2 21.4036 7.59646 27 14.5 27Z" stroke="#333333" stroke-width="2.4" stroke-miterlimit="10" stroke-linecap="round" stroke-linejoin="round"/>
	</symbol>
	<symbol id="modal-success" fill="none">
		<path d="M23.9713 3.69672C23.1287 2.66059 21.8445 1.99915 20.4049 1.99915H5.59601C3.05759 1.99915 1 4.05682 1 6.59524V21.4041C1 23.9425 3.05759 26 5.59601 26H20.4049C22.9434 26 25.0009 23.9425 25.0009 21.4041V14.3301V11.6721" stroke="#309B27" stroke-width="2" stroke-miterlimit="10" stroke-linecap="round" stroke-linejoin="round" />
		<path d="M32.35 1L11.8955 17.6695L7.44897 12.7275" stroke="#309B27" stroke-width="2" stroke-miterlimit="10" stroke-linecap="round" stroke-linejoin="round" />
	</symbol>
	<symbol id="modal-error" fill="none">
		<path d="M13.5 26C20.4036 26 26.0001 20.4036 26.0001 13.5C26.0001 6.59642 20.4036 1 13.5 1C6.59646 1 1 6.59642 1 13.5C1 20.4036 6.59646 26 13.5 26Z" stroke="#CE1348" stroke-width="2" stroke-miterlimit="10" stroke-linecap="round" stroke-linejoin="round" />
		<path d="M13.5002 7.4758V6.62939" stroke="#CE1348" stroke-width="2" stroke-miterlimit="10" stroke-linecap="round" stroke-linejoin="round" />
		<path d="M13.5002 20.3702V10.9259" stroke="#CE1348" stroke-width="2" stroke-miterlimit="10" stroke-linecap="round" stroke-linejoin="round" />
	</symbol>
	<symbol id="close" fill="none">
<path d="M12.1284 16.8708L16.8702 12.1277" stroke="#333333" stroke-width="1.76" stroke-miterlimit="10" stroke-linecap="round" stroke-linejoin="round"/>
<path d="M12.1284 12.1284L16.8702 16.8709" stroke="#333333" stroke-width="1.76" stroke-miterlimit="10" stroke-linecap="round" stroke-linejoin="round"/>
<path d="M14.5 27C21.4036 27 27.0001 21.4036 27.0001 14.5C27.0001 7.59642 21.4036 2 14.5 2C7.59646 2 2 7.59642 2 14.5C2 21.4036 7.59646 27 14.5 27Z" stroke="#333333" stroke-width="2.4" stroke-miterlimit="10" stroke-linecap="round" stroke-linejoin="round"/>
	</symbol>
	<symbol id="mail_footer" fill="none">
		<path d="M19.563 6.87009L19.5529 6.85875C18.6599 5.86105 12.7731 1.8674 12.7731 1.8674C12.1598 1.41604 11.4361 1.18993 10.712 1.1879V1.1875C10.7099 1.1875 10.7083 1.1879 10.7063 1.1879C10.7047 1.1879 10.7026 1.1875 10.701 1.1875V1.1879C9.97647 1.18993 9.25274 1.41604 8.63943 1.8674C8.63943 1.8674 2.75267 5.86105 1.8601 6.85875L1.84954 6.87009C1.3239 7.43673 1 8.19291 1 9.02703V16.0121C1 17.7656 2.42146 19.1875 4.17494 19.1875H10.701H10.712H17.2376C18.9915 19.1875 20.413 17.7656 20.413 16.0121V9.02703C20.413 8.19291 20.0886 7.43673 19.563 6.87009Z" stroke="#FCE500" stroke-width="2" stroke-miterlimit="10" stroke-linecap="round" stroke-linejoin="round" />
		<path d="M1.84521 18.0803L8.63997 13.0775C9.24841 12.6294 9.96564 12.4033 10.6841 12.3981C11.4216 12.392 12.1603 12.6201 12.7838 13.0804L19.5574 18.0803" stroke="#FCE500" stroke-miterlimit="10" stroke-linecap="round" stroke-linejoin="round" />
		<path d="M12.251 12.7458L20.2062 7.97815" stroke="#FCE500" stroke-miterlimit="10" stroke-linecap="round" stroke-linejoin="round" />
		<path d="M1.1958 7.97815L9.15103 12.7458" stroke="#FCE500" stroke-miterlimit="10" stroke-linecap="round" stroke-linejoin="round" />
	</symbol>
	<symbol id="inst" fill="none">
<path fill-rule="evenodd" clip-rule="evenodd" d="M17.249 9.07132C17.2336 8.47977 17.2108 7.88687 17.1513 7.29858C17.0174 5.97995 16.2322 5.07062 14.9331 4.82509C14.2392 4.69363 13.5189 4.67544 12.8097 4.66213C11.5109 4.63823 10.2116 4.64094 8.9125 4.66104C8.24219 4.67163 7.56536 4.695 6.90483 4.79793C5.77686 4.97312 5.00633 5.61953 4.6948 6.73853C4.59485 7.09705 4.53646 7.47702 4.52777 7.84884C4.49436 9.2609 4.47372 10.6735 4.47833 12.0864C4.48159 12.9851 4.50224 13.8868 4.58019 14.7817C4.69562 16.1053 5.48733 17.0113 6.78695 17.2612C7.48551 17.3951 8.21204 17.4125 8.9269 17.4255C10.22 17.4505 11.5136 17.4424 12.8073 17.4282C13.4097 17.4217 14.0137 17.3886 14.6134 17.3296C15.1694 17.275 15.6895 17.0931 16.1363 16.7378C16.8607 16.162 17.1404 15.3679 17.183 14.4873C17.2409 13.2985 17.2526 12.1081 17.2841 10.9182C17.2735 10.9177 17.2632 10.9177 17.2526 10.9177C17.2528 10.3019 17.2653 9.68622 17.249 9.07132ZM10.8517 15.0498C8.62732 15.0487 6.85757 13.2605 6.85865 11.0146C6.85947 8.80162 8.65856 7.0362 10.9104 7.03865C13.1085 7.04109 14.872 8.84588 14.8695 11.0904C14.8674 13.276 13.0664 15.0503 10.8517 15.0498ZM15.0197 7.82385C14.4988 7.81434 14.0748 7.38088 14.0846 6.86837C14.0947 6.3458 14.5165 5.94002 15.0445 5.94491C15.5708 5.94926 15.9695 6.36454 15.9636 6.90096C15.9573 7.41157 15.5271 7.83281 15.0197 7.82385Z" fill="white"/>
<path fill-rule="evenodd" clip-rule="evenodd" d="M10.8609 8.44557C9.43282 8.44992 8.26331 9.62241 8.26575 11.0475C8.2682 12.4731 9.44396 13.6459 10.8677 13.6432C12.2941 13.6399 13.4656 12.4655 13.4631 11.0407C13.4604 9.61398 12.2838 8.44068 10.8609 8.44557Z" fill="white"/>
<path fill-rule="evenodd" clip-rule="evenodd" d="M18.5485 0.459106H3.17964C1.42374 0.459106 0 1.84888 0 3.56323V19.0834C0 20.7977 1.42374 22.1875 3.17964 22.1875H18.5485C20.3044 22.1875 21.7281 20.7977 21.7281 19.0834V3.56323C21.7281 1.84888 20.3044 0.459106 18.5485 0.459106ZM18.649 13.5022C18.64 14.3211 18.6129 15.1433 18.3399 15.9304C17.8168 17.4402 16.7543 18.3563 15.2024 18.6545C14.4976 18.79 13.7661 18.8044 13.0456 18.8324C12.3174 18.8609 11.5873 18.8387 10.8581 18.8387C10.8581 18.846 10.8581 18.8533 10.8578 18.8604C9.80428 18.8419 8.75046 18.8321 7.69719 18.802C6.78787 18.7759 5.90679 18.6116 5.11752 18.1273C4.08353 17.4923 3.45206 16.5591 3.2508 15.3736C3.13048 14.665 3.08757 13.9368 3.0767 13.2165C3.05308 11.673 3.06231 10.1289 3.07915 8.58514C3.08784 7.76599 3.115 6.94415 3.38823 6.15677C3.91134 4.64748 4.97384 3.73134 6.52577 3.4334C7.23058 3.2976 7.962 3.26802 8.68229 3.25688C10.2312 3.23298 11.7813 3.24193 13.3308 3.25904C14.1439 3.268 14.9604 3.29571 15.7423 3.56568C17.2587 4.08933 18.1794 5.15348 18.4754 6.7141C18.6093 7.41918 18.6398 8.15058 18.6509 8.87087C18.6748 10.4144 18.6656 11.9584 18.649 13.5022Z" fill="white"/>
	</symbol>
	<symbol id="vk" fill="none">
<path fill-rule="evenodd" clip-rule="evenodd" d="M19.2766 0.1875H3.90779C2.15189 0.1875 0.728149 1.57727 0.728149 3.29162V18.8118C0.728149 20.5261 2.15189 21.9159 3.90779 21.9159H19.2766C21.0325 21.9159 22.4563 20.5261 22.4563 18.8118V3.29162C22.4563 1.57727 21.0325 0.1875 19.2766 0.1875ZM17.5085 12.2167C17.6663 12.4093 17.8437 12.5853 18.0159 12.7659C18.5604 13.3368 19.1137 13.899 19.6458 14.4808C19.8065 14.6568 19.9263 14.8782 20.0344 15.0941C20.2183 15.461 20.0972 15.7429 19.7069 15.8722C19.5559 15.9225 19.391 15.9488 19.2316 15.9529C18.4963 15.9722 17.7603 15.9847 17.0245 15.9901C16.5476 15.9939 16.1434 15.7913 15.8012 15.4787C15.538 15.2383 15.3047 14.9651 15.0576 14.7068C14.8248 14.4634 14.6073 14.2013 14.3541 13.9808C13.928 13.6098 13.5336 13.704 13.3533 14.241C13.2392 14.5807 13.2001 14.9501 13.1632 15.31C13.1216 15.7166 12.9722 15.9279 12.5732 15.9461C11.5919 15.9906 10.6188 15.964 9.68231 15.5916C8.49894 15.1207 7.56871 14.3355 6.79247 13.3452C5.63246 11.8647 4.73536 10.227 3.91594 8.5425C3.75352 8.2087 3.59762 7.87166 3.45123 7.53053C3.28093 7.13426 3.4132 6.90449 3.84315 6.89227C4.646 6.87 5.4494 6.86401 6.2528 6.86889C6.59909 6.87107 6.81637 7.07096 6.94755 7.39416C7.39325 8.49279 7.95547 9.52979 8.65837 10.4869C8.78548 10.6594 8.93215 10.8234 9.09511 10.9617C9.42728 11.2438 9.71681 11.1656 9.82246 10.7463C9.9072 10.409 9.95854 10.0551 9.96315 9.70795C9.97021 9.14926 9.94414 8.58894 9.89878 8.03189C9.85913 7.54626 9.57748 7.24534 9.09213 7.14593C9.04704 7.13697 9.00385 7.1174 8.92645 7.09133C9.02422 6.83629 9.20375 6.68938 9.42565 6.62773C9.7092 6.54869 10.0055 6.47588 10.2972 6.4729C10.9974 6.46502 11.7022 6.45876 12.3972 6.52856C13.0021 6.58913 13.1833 6.83711 13.1838 7.45066C13.1838 8.20652 13.1523 8.96185 13.1414 9.71799C13.1376 9.97384 13.1493 10.2305 13.1667 10.4861C13.1729 10.5849 13.205 10.6854 13.2419 10.7789C13.3818 11.1303 13.6197 11.2061 13.8987 10.9559C14.1279 10.7506 14.337 10.5151 14.5198 10.2669C15.179 9.37007 15.6907 8.39067 16.1011 7.35723C16.2578 6.96178 16.3629 6.89307 16.7806 6.89144C17.6514 6.88764 18.5224 6.88411 19.3929 6.87569C20.0934 6.86917 20.2905 7.12475 19.985 7.7584C19.7283 8.29019 19.4108 8.79728 19.0748 9.28453C18.6577 9.88966 18.1905 10.4603 17.753 11.0513C17.6335 11.2132 17.5313 11.3902 17.4398 11.5698C17.3257 11.7947 17.3499 12.0228 17.5085 12.2167Z" fill="white"/>
	</symbol>
	<symbol id="youtube" fill="none">
<path fill-rule="evenodd" clip-rule="evenodd" d="M3.63594 0.1875H19.0048C20.7607 0.1875 22.1844 1.57727 22.1844 3.29162V18.8118C22.1844 20.5261 20.7607 21.9159 19.0048 21.9159H3.63594C1.88003 21.9159 0.456299 20.5261 0.456299 18.8118V3.29162C0.456299 1.57727 1.88003 0.1875 3.63594 0.1875ZM8.67222 15.2673L16.2092 10.9158L8.67222 6.56434V15.2673Z" fill="white"/>
	</symbol>
	<symbol fill="none" id="user">
<path d="M10.8724 12.2404C15.7718 12.2404 19.7448 16.2128 19.7448 21.1128C19.7448 21.6033 19.3481 22 18.8582 22H2.88724C2.39672 22 2 21.6033 2 21.1128C2 16.2128 5.97239 12.2404 10.8724 12.2404Z" stroke="#333333" stroke-width="2.4" stroke-miterlimit="10" stroke-linecap="round" stroke-linejoin="round"/>
<path d="M10.873 10.0959C13.1086 10.0959 14.9209 8.28357 14.9209 6.04795C14.9209 3.81232 13.1086 2 10.873 2C8.63733 2 6.82501 3.81232 6.82501 6.04795C6.82501 8.28357 8.63733 10.0959 10.873 10.0959Z" stroke="#333333" stroke-width="2.4" stroke-miterlimit="10" stroke-linecap="round" stroke-linejoin="round"/>
	</symbol>
</svg>
