<svg xmlns="http://www.w3.org/2000/svg">
	<symbol id="phone">
		<path d="M4.03738 0.482295L5.90542 2.34683C6.62853 3.06858 6.62853 3.91063 5.90542 4.57223L4.51945 5.95559C5.12205 8.66217 7.35165 10.8274 10.0031 11.4289L11.389 10.0455C12.1121 9.38392 12.9558 9.38392 13.6186 10.0455L15.4867 11.9702C16.1495 12.5717 16.1495 13.4137 15.6072 14.0753L14.0404 16C5.60412 16 0 10.4064 0 1.98595L1.9283 0.422149C2.59115 -0.179313 3.43479 -0.119166 4.03738 0.482295Z" fill="#14451F" />
	</symbol>
	<symbol id="parameters">
		<path opacity="0.5" fill-rule="evenodd" clip-rule="evenodd" d="M2.40711 11.3691C3.00386 11.3691 3.48762 10.8853 3.48762 10.2886C3.48762 9.69183 3.00386 9.20807 2.40711 9.20807C1.81036 9.20807 1.3266 9.69183 1.3266 10.2886C1.3266 10.8853 1.81036 11.3691 2.40711 11.3691ZM2.40711 12.4496C3.60061 12.4496 4.56813 11.4821 4.56813 10.2886C4.56813 9.09508 3.60061 8.12756 2.40711 8.12756C1.21361 8.12756 0.246094 9.09508 0.246094 10.2886C0.246094 11.4821 1.21361 12.4496 2.40711 12.4496Z" fill="#2F80ED" />
		<path opacity="0.5" fill-rule="evenodd" clip-rule="evenodd" d="M8.16981 5.60639C8.76655 5.60639 9.25031 5.12263 9.25031 4.52589C9.25031 3.92914 8.76655 3.44538 8.16981 3.44538C7.57306 3.44538 7.0893 3.92914 7.0893 4.52589C7.0893 5.12263 7.57306 5.60639 8.16981 5.60639ZM8.16981 6.6869C9.3633 6.6869 10.3308 5.71938 10.3308 4.52589C10.3308 3.33239 9.3633 2.36487 8.16981 2.36487C6.97631 2.36487 6.00879 3.33239 6.00879 4.52589C6.00879 5.71938 6.97631 6.6869 8.16981 6.6869Z" fill="#2F80ED" />
		<path opacity="0.5" fill-rule="evenodd" clip-rule="evenodd" d="M13.9325 14.6106C14.5292 14.6106 15.013 14.1268 15.013 13.5301C15.013 12.9333 14.5292 12.4496 13.9325 12.4496C13.3358 12.4496 12.852 12.9333 12.852 13.5301C12.852 14.1268 13.3358 14.6106 13.9325 14.6106ZM13.9325 15.6911C15.126 15.6911 16.0935 14.7236 16.0935 13.5301C16.0935 12.3366 15.126 11.3691 13.9325 11.3691C12.739 11.3691 11.7715 12.3366 11.7715 13.5301C11.7715 14.7236 12.739 15.6911 13.9325 15.6911Z" fill="#2F80ED" />
		<path opacity="0.5" fill-rule="evenodd" clip-rule="evenodd" d="M8.1698 0.203827C7.77197 0.203827 7.44946 0.526333 7.44946 0.924165V2.8751C7.67004 2.77873 7.91364 2.72528 8.16974 2.72528C8.42588 2.72528 8.66953 2.77876 8.89014 2.87515V0.924166C8.89014 0.526334 8.56763 0.203827 8.1698 0.203827ZM8.89014 6.1771C8.66953 6.2735 8.42588 6.32697 8.16974 6.32697C7.91364 6.32697 7.67004 6.27352 7.44946 6.17716V17.492C7.44946 17.8898 7.77197 18.2123 8.1698 18.2123C8.56763 18.2123 8.89014 17.8898 8.89014 17.492V6.1771Z" fill="#2F80ED" />
		<path opacity="0.5" fill-rule="evenodd" clip-rule="evenodd" d="M13.9315 0.203125C13.5337 0.203125 13.2112 0.525631 13.2112 0.923463V11.8784C13.4318 11.782 13.6754 11.7285 13.9315 11.7285C14.1876 11.7285 14.4313 11.782 14.6519 11.8784V0.923464C14.6519 0.525632 14.3294 0.203125 13.9315 0.203125ZM14.6519 15.1804C14.4313 15.2768 14.1876 15.3302 13.9315 15.3302C13.6754 15.3302 13.4318 15.2768 13.2112 15.1804V17.4913C13.2112 17.8891 13.5337 18.2116 13.9315 18.2116C14.3294 18.2116 14.6519 17.8891 14.6519 17.4913V15.1804Z" fill="#2F80ED" />
		<path opacity="0.5" fill-rule="evenodd" clip-rule="evenodd" d="M2.40601 0.203125C2.00818 0.203125 1.68567 0.525631 1.68567 0.923463V8.63687C1.90626 8.54049 2.14989 8.48702 2.40601 8.48702C2.66213 8.48702 2.90576 8.54049 3.12635 8.63687V0.923464C3.12635 0.525632 2.80384 0.203125 2.40601 0.203125ZM3.12635 11.9389C2.90576 12.0353 2.66213 12.0887 2.40601 12.0887C2.14989 12.0887 1.90626 12.0353 1.68567 11.9389V17.4913C1.68567 17.8891 2.00818 18.2116 2.40601 18.2116C2.80384 18.2116 3.12635 17.8891 3.12635 17.4913V11.9389Z" fill="#2F80ED" />
	</symbol>
	<symbol id="visual" width="18" height="18" viewBox="0 0 18 18" fill="none" xmlns="http://www.w3.org/2000/svg">
		<path fill-rule="evenodd" clip-rule="evenodd" d="M0.462769 0.386627H17.3846V17.3085H13.6242V16.2341H16.3102V12.2051H10.6696V11.1307H16.3102V1.46103H11.2068V8.17606H10.1324V1.46103H1.53717V16.2341H5.83479V8.71326H3.68598V7.63885H6.90919V16.2341H10.6696V17.3085H0.462769V0.386627Z" fill="white" />
	</symbol>
</svg>
