<svg xmlns="http://www.w3.org/2000/svg">
	<symbol id="phone">
		<path d="M4.03738 0.439931L5.90542 2.14069C6.62853 2.79904 6.62853 3.56713 5.90542 4.17062L4.51945 5.43247C5.12205 7.90131 7.35165 9.87638 10.0031 10.425L11.389 9.16316C12.1121 8.55966 12.9558 8.55966 13.6186 9.16316L15.4867 10.9188C16.1495 11.4674 16.1495 12.2355 15.6072 12.839L14.0404 14.5946C5.60412 14.5946 0 9.49233 0 1.81151L1.9283 0.385068C2.59115 -0.163562 3.43479 -0.108699 4.03738 0.439931Z" fill="#2D9CDB" />
	</symbol>
	<symbol id="parameters">
		<path opacity="0.5" fill-rule="evenodd" clip-rule="evenodd" d="M8.16981 5.60639C8.76655 5.60639 9.25031 5.12263 9.25031 4.52589C9.25031 3.92914 8.76655 3.44538 8.16981 3.44538C7.57306 3.44538 7.0893 3.92914 7.0893 4.52589C7.0893 5.12263 7.57306 5.60639 8.16981 5.60639ZM8.16981 6.6869C9.3633 6.6869 10.3308 5.71938 10.3308 4.52589C10.3308 3.33239 9.3633 2.36487 8.16981 2.36487C6.97631 2.36487 6.00879 3.33239 6.00879 4.52589C6.00879 5.71938 6.97631 6.6869 8.16981 6.6869Z" fill="#2D9CDB" />
		<path opacity="0.5" fill-rule="evenodd" clip-rule="evenodd" d="M13.9325 14.6107C14.5292 14.6107 15.013 14.1269 15.013 13.5302C15.013 12.9334 14.5292 12.4496 13.9325 12.4496C13.3358 12.4496 12.852 12.9334 12.852 13.5302C12.852 14.1269 13.3358 14.6107 13.9325 14.6107ZM13.9325 15.6912C15.126 15.6912 16.0935 14.7237 16.0935 13.5302C16.0935 12.3367 15.126 11.3691 13.9325 11.3691C12.739 11.3691 11.7715 12.3367 11.7715 13.5302C11.7715 14.7237 12.739 15.6912 13.9325 15.6912Z" fill="#2D9CDB" />
		<path opacity="0.5" fill-rule="evenodd" clip-rule="evenodd" d="M8.1698 0.203857C7.77197 0.203857 7.44946 0.526364 7.44946 0.924196V2.87513C7.67004 2.77876 7.91364 2.72531 8.16974 2.72531C8.42588 2.72531 8.66953 2.77879 8.89014 2.87518V0.924196C8.89014 0.526364 8.56763 0.203857 8.1698 0.203857ZM8.89014 6.17713C8.66953 6.27353 8.42588 6.327 8.16974 6.327C7.91364 6.327 7.67004 6.27355 7.44946 6.17719V17.492C7.44946 17.8898 7.77197 18.2123 8.1698 18.2123C8.56763 18.2123 8.89014 17.8898 8.89014 17.492V6.17713Z" fill="#2D9CDB" />
		<path opacity="0.5" fill-rule="evenodd" clip-rule="evenodd" d="M13.9315 0.203125C13.5337 0.203125 13.2112 0.525631 13.2112 0.923463V11.8784C13.4318 11.782 13.6754 11.7285 13.9315 11.7285C14.1876 11.7285 14.4313 11.782 14.6519 11.8784V0.923464C14.6519 0.525632 14.3294 0.203125 13.9315 0.203125ZM14.6519 15.1804C14.4313 15.2768 14.1876 15.3302 13.9315 15.3302C13.6754 15.3302 13.4318 15.2768 13.2112 15.1804V17.4913C13.2112 17.8891 13.5337 18.2116 13.9315 18.2116C14.3294 18.2116 14.6519 17.8891 14.6519 17.4913V15.1804Z" fill="#2D9CDB" />
		<path opacity="0.5" fill-rule="evenodd" clip-rule="evenodd" d="M2.40601 0.203125C2.00818 0.203125 1.68567 0.525631 1.68567 0.923463V8.63687C1.90626 8.54049 2.14989 8.48702 2.40601 8.48702C2.66213 8.48702 2.90576 8.54049 3.12635 8.63687V0.923464C3.12635 0.525632 2.80384 0.203125 2.40601 0.203125ZM3.12635 11.9389C2.90576 12.0353 2.66213 12.0887 2.40601 12.0887C2.14989 12.0887 1.90626 12.0353 1.68567 11.9389V17.4913C1.68567 17.8891 2.00818 18.2116 2.40601 18.2116C2.80384 18.2116 3.12635 17.8891 3.12635 17.4913V11.9389Z" fill="#2D9CDB" />
	</symbol>
	<symbol id="visual" width="18" height="18" viewBox="0 0 18 18" fill="none" xmlns="http://www.w3.org/2000/svg">
		<path fill-rule="evenodd" clip-rule="evenodd" d="M0.462769 0.386627H17.3846V17.3085H13.6242V16.2341H16.3102V12.2051H10.6696V11.1307H16.3102V1.46103H11.2068V8.17606H10.1324V1.46103H1.53717V16.2341H5.83479V8.71326H3.68598V7.63885H6.90919V16.2341H10.6696V17.3085H0.462769V0.386627Z" fill="white" />
	</symbol>
	<symbol id="back">
		<path d="M18.5 11.25C19.1904 11.25 19.75 10.6904 19.75 10C19.75 9.30964 19.1904 8.75 18.5 8.75V11.25ZM1.11612 9.11612C0.627962 9.60427 0.627962 10.3957 1.11612 10.8839L9.07107 18.8388C9.55922 19.327 10.3507 19.327 10.8388 18.8388C11.327 18.3507 11.327 17.5592 10.8388 17.0711L3.76777 10L10.8388 2.92893C11.327 2.44078 11.327 1.64932 10.8388 1.16117C10.3507 0.67301 9.55922 0.67301 9.07107 1.16117L1.11612 9.11612ZM18.5 8.75L2 8.75V11.25L18.5 11.25V8.75Z" fill="#2D9CDB" />
	</symbol>
	<symbol id="pazzle-1">
		<path d="M4.30903 15.5996V0.948853H22.8379V2.95973H30.0196V4.68335H38.2067V16.3177H35.6213V30.9684H34.185V39.1556H23.2688V36.8575L8.04353 37.1447V35.1338H0V15.5996H4.30903Z" />
	</symbol>
	<symbol id="pazzle-2">
		<path d="M0.307983 0.660461H50.58V22.4929H41.1001V23.7856H30.7585V22.4929H20.7041V24.2165H10.9369V22.4929H0.307983V0.660461Z" />
	</symbol>
	<symbol id="pazzle-3">
<path d="M2.56606 7.09363L6.30056 2.21006L8.59871 3.93368L11.1841 0.48645H30.0002V5.51365H25.4039V10.2536L21.2385 14.8499L22.8185 16.4299L15.4932 23.8989L14.2004 22.4625L10.035 27.4897L9.02961 26.4843L6.30056 28.7824V32.6606H0.986084V11.259L3.85877 8.96088L2.56606 7.09363Z" fill="#C4C4C4"/>
	</symbol>
	<symbol id="pazzle-4">
<path d="M1.33299 0.32312H19V10.2339H17.1328V19.5701H19V30.1991H0.0402832V5.78123H1.33299V0.32312Z"/>
</symbol>
<symbol id="pazzle-5">
<path d="M2.18947 2.87269L6.35487 2.58542L8.50938 0H16.8402V2.29815H20.0001V33.0359H0.178589V8.47443H2.3331L2.18947 2.87269Z"/>
</symbol>
</svg>
